Coordinates
version=1
nRows=7
nColumns=40
inDegrees=yes

Units are S.I. units (second, meters, Newtons, ...)
Angles are in degrees.

endheader
time	pelvis_tilt	pelvis_list	pelvis_rotation	pelvis_tx	pelvis_ty	pelvis_tz	hip_flexion_r	hip_adduction_r	hip_rotation_r	knee_angle_r	knee_angle_r_beta	ankle_angle_r	subtalar_angle_r	mtp_angle_r	hip_flexion_l	hip_adduction_l	hip_rotation_l	knee_angle_l	knee_angle_l_beta	ankle_angle_l	subtalar_angle_l	mtp_angle_l	lumbar_extension	lumbar_bending	lumbar_rotation	arm_flex_r	arm_add_r	arm_rot_r	elbow_flex_r	pro_sup_r	wrist_flex_r	wrist_dev_r	arm_flex_l	arm_add_l	arm_rot_l	elbow_flex_l	pro_sup_l	wrist_flex_l	wrist_dev_l
     38.51500000	     -4.14455688	     -2.79803134	     -4.80003154	      0.94839002	      0.92461773	      0.43881571	     28.17892940	     -2.17168798	    -12.96099171	     15.59120732	     15.59120732	      2.92986310	      2.26880772	      8.16479576	     -0.55396081	     -2.10186820	    -12.12157461	     11.38015707	     11.38015707	     17.06214813	     -5.79333726	     -5.36258508	     -8.74875491	      5.62011377	      2.38075123	    -13.32877706	    -13.41208624	    -16.04510323	     20.66493892	     47.86223007	      0.00000000	      0.00000000	     26.32071495	    -17.43069380	     -9.24257004	     66.35773692	     47.66043787	      0.00000000	      0.00000000
     38.52735714	     -4.04136637	     -2.86371012	     -4.73876656	      0.95003764	      0.92341885	      0.44096441	     27.46216043	     -1.87245662	    -13.40151210	     15.28601437	     15.28601437	      2.81544828	      2.22484696	      7.82315555	     -1.33263521	     -2.27731051	    -12.15376468	     11.39023611	     11.39023611	     17.72005648	     -5.48630652	     -4.91362962	     -8.67710429	      5.66204507	      2.73600213	    -14.69586487	    -13.32422271	    -16.03090425	     20.80330838	     47.82456466	      0.00000000	      0.00000000	     26.43537867	    -17.07272823	     -9.54634094	     67.80148232	     47.70613411	      0.00000000	      0.00000000
     38.53971429	     -4.08758438	     -2.87922560	     -4.60176445	      0.95164781	      0.92199437	      0.44319248	     27.06177098	     -1.69481717	    -13.70947387	     15.54200879	     15.54200879	      2.87161615	      1.95441493	      7.66981490	     -1.85780331	     -2.43011311	    -12.00116126	     11.50846107	     11.50846107	     18.15148747	     -5.50331820	     -4.95150872	     -8.35052700	      5.66239706	      2.48857644	    -15.49512700	    -13.24235475	    -16.05111962	     20.60724327	     47.82457446	      0.00000000	      0.00000000	     26.46059935	    -17.24369146	     -9.66973064	     67.98627609	     47.71837179	      0.00000000	      0.00000000
     38.55207143	     -3.97805620	     -2.97831321	     -4.43474265	      0.95346689	      0.92076406	      0.44566243	     26.42409881	     -1.40243060	    -13.73981633	     15.78425799	     15.78425799	      1.55066770	      0.96202362	      3.51066881	     -2.21679086	     -2.84985173	    -12.32667109	     12.48750917	     12.48750917	     20.13418079	     -4.28111787	     -2.05219874	     -8.34164112	      5.74393970	      2.30913561	    -16.79204971	    -13.15307280	    -15.75888465	     22.48632963	     47.63510243	      0.00000000	      0.00000000	     25.61689091	    -17.16701386	    -10.69404434	     70.52054563	     47.82500534	      0.00000000	      0.00000000
     38.56442857	     -3.91919305	     -3.13556070	     -4.24586074	      0.95527076	      0.91980177	      0.44820474	     25.94578200	     -1.15024182	    -13.93534761	     16.44480226	     16.44480226	      1.60573673	      0.61603002	      3.17337524	     -2.72730559	     -3.22540187	    -12.08974399	     12.88198603	     12.88198603	     20.47578402	     -4.42272909	     -2.05170381	     -8.16933829	      5.89680020	      2.32466022	    -17.31963308	    -12.96248228	    -15.68520714	     22.22788677	     47.63026367	      0.00000000	      0.00000000	     25.50860107	    -17.07365289	    -10.73959785	     70.62102533	     47.82900742	      0.00000000	      0.00000000
     38.57678571	     -3.82964313	     -3.29685204	     -4.05548886	      0.95708488	      0.91912945	      0.45086892	     25.44070859	     -0.90122084	    -13.98669223	     17.14567953	     17.14567953	      1.74554427	      0.27981147	      2.77769635	     -3.17848310	     -3.64053108	    -11.86902250	     13.43808877	     13.43808877	     20.75412549	     -4.60958014	     -2.02831671	     -8.03400226	      6.05371164	      2.35166225	    -17.66108729	    -12.68343194	    -15.61815902	     22.05072710	     47.62493789	      0.00000000	      0.00000000	     25.26633664	    -16.86059432	    -10.75718226	     70.73230454	     47.83020298	      0.00000000	      0.00000000
     38.58914286	     -3.88881940	     -3.44225126	     -3.91571922	      0.95860110	      0.91834162	      0.45388879	     25.10082694	     -0.51645258	    -13.52915797	     17.64654059	     17.64654059	      0.55100782	     -1.27340191	     -1.17210992	     -2.92136752	     -4.27533714	    -12.08361587	     15.16566956	     15.16566956	     22.29335724	     -3.97576249	      0.19840361	     -7.84532039	      6.11085807	      2.33282476	    -17.56599958	    -12.58234934	    -14.79603917	     21.67349925	     47.52237520	      0.00000000	      0.00000000	     24.67051407	    -16.52440085	    -11.47705560	     71.98244538	     47.89407785	      0.00000000	      0.00000000
